<svg xmlns="http://www.w3.org/2000/svg" viewBox="0 0 400 300">
  <rect width="400" height="300" rx="16" fill="#e9f1ec"/>
  <circle cx="200" cy="60" r="16" fill="#ffd66b"/>
  <circle cx="90" cy="90" r="6" fill="#25d366"/><circle cx="310" cy="90" r="6" fill="#25d366"/>
  <circle cx="120" cy="50" r="4" fill="#7ef0c0"/><circle cx="285" cy="45" r="4" fill="#7ef0c0"/>
  <rect x="50" y="150" width="130" height="100" rx="12" fill="#fff" stroke="#128c4a" stroke-width="3"/>
  <rect x="50" y="150" width="130" height="34" rx="12" fill="#e7f6ec"/>
  <rect x="66" y="196" width="98" height="9" rx="4.5" fill="#d9e9dd"/>
  <rect x="66" y="212" width="70" height="9" rx="4.5" fill="#e6f2e9"/>
  <rect x="66" y="160" width="60" height="14" rx="7" fill="#128c4a"/>
  <rect x="220" y="120" width="130" height="130" rx="12" fill="#0d1f16"/>
  <rect x="220" y="120" width="130" height="40" rx="12" fill="#16432c"/>
  <path d="M268 100 l10 -14 6 4 16 -12 4 6 -16 12 2 6 -8 4 -4 8 -8 -4 -6 6 -4 -8z" fill="#ffd66b"/>
  <rect x="236" y="172" width="98" height="9" rx="4.5" fill="#1d5c38"/>
  <rect x="236" y="188" width="70" height="9" rx="4.5" fill="#1d5c38"/>
  <rect x="236" y="204" width="98" height="22" rx="11" fill="#25d366"/>
  <rect x="248" y="211" width="60" height="8" rx="4" fill="#04120c"/>
  <rect x="236" y="130" width="60" height="16" rx="8" fill="#ffd66b"/>
</svg>
