<svg xmlns="http://www.w3.org/2000/svg" viewBox="0 0 400 300">
  <rect width="400" height="300" rx="16" fill="#e9f1ec"/>
  <circle cx="320" cy="60" r="34" fill="#ffd66b"/>
  <circle cx="70" cy="52" r="14" fill="#bfe8cd"/>
  <circle cx="340" cy="230" r="18" fill="#bfe8cd"/>
  <rect x="60" y="150" width="280" height="110" rx="12" fill="#0d1f16"/>
  <rect x="60" y="150" width="280" height="26" rx="12" fill="#16432c"/>
  <rect x="60" y="168" width="280" height="8" fill="#16432c"/>
  <rect x="90" y="196" width="70" height="44" rx="8" fill="#25d366"/>
  <rect x="170" y="196" width="70" height="44" rx="8" fill="#7ef0c0"/>
  <rect x="250" y="196" width="60" height="44" rx="8" fill="#ffd66b"/>
  <circle cx="200" cy="105" r="26" fill="#8a5a3b"/>
  <path d="M174 105 a26 26 0 0 1 52 0 l0 -6 a26 18 0 0 0 -52 0 z" fill="#1c1c1c"/>
  <rect x="182" y="108" width="36" height="26" rx="12" fill="#8a5a3b"/>
  <circle cx="190" cy="118" r="3" fill="#1c1c1c"/><circle cx="210" cy="118" r="3" fill="#1c1c1c"/>
  <path d="M192 128 q8 6 16 0" stroke="#1c1c1c" stroke-width="2.5" fill="none" stroke-linecap="round"/>
  <rect x="150" y="140" width="100" height="26" rx="13" fill="#fff" stroke="#128c4a" stroke-width="2"/>
  <rect x="120" y="60" rx="12" width="110" height="34" fill="#fff" stroke="#e5e7eb" stroke-width="2"/>
  <circle cx="138" cy="77" r="4" fill="#25d366"/><rect x="148" y="71" width="66" height="6" rx="3" fill="#d9e9dd"/><rect x="148" y="81" width="44" height="6" rx="3" fill="#e6f2e9"/>
  <rect x="252" y="60" width="110" height="34" rx="12" fill="#25d366"/>
  <rect x="264" y="71" width="66" height="6" rx="3" fill="#e7f6ec"/><rect x="264" y="81" width="44" height="6" rx="3" fill="#e7f6ec"/>
</svg>
